<?xml version="1.0" encoding="utf-8"?>
<!-- Generator: Adobe Illustrator 27.3.1, SVG Export Plug-In . SVG Version: 6.00 Build 0)  -->
<svg version="1.1" id="Слой_1" xmlns="http://www.w3.org/2000/svg" xmlns:xlink="http://www.w3.org/1999/xlink" x="0px" y="0px"
	 viewBox="0 0 278.1 241.6" style="enable-background:new 0 0 278.1 241.6;" xml:space="preserve">
<style type="text/css">
	.st0{fill:#2B2B2B;}
</style>
<g>
	<g>
		<g id="Слой_3">
			<g>
				<g>
					<g>
						<path class="st0" d="M272.1,235.6H6L139,6L272.1,235.6L272.1,235.6z M59.1,205c51.1,0,108.9,0,159.9,0
							c-25.6-44.2-54.5-94-80-138C113.6,111,84.7,160.9,59.1,205L59.1,205z"/>
						<path class="st0" d="M272.1,241.6H6c-2.1,0-4.1-1.1-5.2-3s-1.1-4.1,0-6L133.8,3c1.1-1.9,3.1-3,5.2-3s4.1,1.1,5.2,3
							l133.1,229.6c1.1,1.9,1.1,4.1,0,6S274.2,241.6,272.1,241.6z M16.4,229.6h245.3L139,18L16.4,229.6z M219,211H59.1
							c-2.1,0-4.1-1.1-5.2-3c-1.1-1.9-1.1-4.2,0-6c27.5-47.3,55.8-96.3,79.9-138c1.1-1.9,3-3,5.2-3l0,0c2.1,0,4.1,1.1,5.2,3
							c10.5,18.1,21.5,37.1,32.7,56.3c16,27.6,32.3,55.6,47.3,81.7c1.1,1.9,1.1,4.1,0,6S221.1,211,219,211z M69.5,199h139.1
							c-13.6-23.4-27.9-48.2-42.1-72.7c-9.3-16.1-18.6-32-27.5-47.4C117.7,115.9,93.4,157.9,69.5,199z"/>
					</g>
				</g>
			</g>
		</g>
	</g>
</g>
</svg>
