<?xml version="1.0" encoding="utf-8"?>
<!-- Generator: Adobe Illustrator 28.1.0, SVG Export Plug-In . SVG Version: 6.00 Build 0)  -->
<svg version="1.1" id="Слой_1" xmlns="http://www.w3.org/2000/svg" xmlns:xlink="http://www.w3.org/1999/xlink" x="0px" y="0px"
	 viewBox="0 0 192.2 585.3" style="enable-background:new 0 0 192.2 585.3;" xml:space="preserve">
<style type="text/css">
	.st0{fill:#151521;}
</style>
<path class="st0" d="M156.8,584.4c11.6-12.7,23.2-25.4,34.7-38.2c2.2-2.4-1.7-5.6-3.8-3.2c-9,9.9-18,19.8-27,29.7
	c9.8-33.8,16.5-68.5,20-103.6c1.8-18.3,2.7-36.8,2.8-55.2c0-16.9-0.7-33.9-3.2-50.6c-5-33-17.3-65.3-41.4-89.1
	c-4-3.9-8.2-7.6-12.7-10.8c0.1-12.4-0.8-24.7-1.7-36.6c-2.6-34.4-7.7-68.7-15.3-102.4c-7.6-33.8-17.6-67-30-99.3
	c-3-7.9-6.2-15.7-9.5-23.4c-1.3-3-5.9-1.2-4.7,1.8c13,30.5,23.8,61.9,32.4,93.9c8.6,32.2,15,65,19,98.1c2,16.5,3.5,33.1,4.2,49.7
	c0.2,4.9,0.4,9.8,0.4,14.7c-7.3-4.7-15.1-8.5-23.4-11C84,244.6,69.3,244,55.4,247c-27.6,5.9-52.2,26.4-55.1,55.7
	c-2.7,27.2,12.6,57.1,40.9,63.2c27.8,6,55.7-12.4,69.5-35.6c11-18.3,14.7-39.5,15.3-60.9c24.4,19.2,39.2,47.9,46.1,77.8
	c7.5,32.5,7.4,66.8,5.3,99.9c-2.2,35.5-7.7,70.8-16.4,105.3c-1.8,7.2-3.8,14.4-5.9,21.6c-4.6-17.2-9.6-34.3-15.5-51
	c-0.4-1.1-0.8-2.1-1.1-3.2c-1.1-3-5.8-1.3-4.7,1.8c4.7,12.8,8.6,25.9,12.4,38.9c2.2,7.7,4.3,15.5,6.4,23.2
	C153,585.6,155.6,585.7,156.8,584.4z M97.9,339.3c-8.9,10-20.6,17.8-33.7,21.1c-12.6,3.2-26.6,1.6-37.4-6
	C16.1,346.8,9.1,334.8,6.4,322c-2.8-13-1.5-27,4.9-38.7c6.5-11.9,17.5-21,29.8-26.5c12.5-5.5,26.5-7.7,40.1-6.3
	c14.3,1.5,28,7,39.8,15.2c-0.2,10.5-1.1,21-3.2,31.2C114.6,312.4,108.5,327.4,97.9,339.3z"/>
</svg>
