<?xml version="1.0" encoding="utf-8"?>
<!-- Generator: Adobe Illustrator 28.1.0, SVG Export Plug-In . SVG Version: 6.00 Build 0)  -->
<svg version="1.1" id="OBJECTS" xmlns="http://www.w3.org/2000/svg" xmlns:xlink="http://www.w3.org/1999/xlink" x="0px" y="0px"
	 viewBox="0 0 97.9 232.2" style="enable-background:new 0 0 97.9 232.2;" xml:space="preserve">
<style type="text/css">
	.st0{fill:#C3AD93;}
</style>
<g>
	<path class="st0" d="M97.8,72.2c-1.2-2.5-4.3-3.1-7.3-3c0.4-0.2,0.8-0.3,1.1-0.5c1.6-0.7,4.9-1.9,5-4c0.1-2.6-4.1-1.8-5.3-1.4
		c-0.6,0.2-1.2,0.5-1.8,0.8c1.5-1.7,2.6-3.6,3.1-6.1c0-0.2-0.1-0.4-0.3-0.4c-2.9,0-4.8,1.9-6.1,4.2c0.5-2.9-0.5-5.9-2.7-8.8
		c-0.1-0.2-0.4-0.2-0.6,0c-1,2.2-1.5,4.4-1.6,6.7c-0.3-0.6-0.6-1.1-0.9-1.7C80.3,58,80.1,58,80,58c-0.1-0.1-0.1-0.1-0.2-0.1
		c-0.1,0-0.1,0-0.2,0c-0.1,0-0.3,0.1-0.3,0.2c-1.2,3.7-1.5,8.8,1.6,11.7c0,0.1,0,0.3,0,0.4c-2,0.9-3.9,2.1-5.8,3.3
		c-0.2,0-0.4,0.1-0.6,0.2c-0.1,0.1-0.1,0.2-0.1,0.2c-1.5,1.1-3,2.2-4.5,3.4c0.9-1.4,1.4-3.3,0.6-4.7c-0.1-0.2-0.3-0.2-0.5-0.1
		c-1.3,1.4-2,3.5-1.4,5.3c-0.1,0.2-0.2,0.5-0.3,0.7c0,0.1,0,0.1,0,0.1c-4.2,3.6-8.2,7.7-12.1,11.4c-0.1,0-0.2,0.1-0.3,0.1
		c-0.1,0-0.1,0.1-0.1,0.2c-0.5,0.5-1,0.9-1.4,1.3c-0.6,0.5-1.2,1-1.6,1.6c-0.4,0.4-0.8,0.7-1.1,1.1C53.8,90.9,55,87,56,83.1
		c0.6-2.1,1.2-4.3,1.8-6.5c0.9-0.2,1.7-1.1,2.3-1.8c0.6-0.7,1-1.6,1-2.6c0-0.3-0.3-0.4-0.5-0.3c-0.8,0.5-1.5,1.3-2.1,2.1
		c0.7-3.1,1.3-6.1,1.5-9.2c0.2,0.1,0.4,0.1,0.6-0.1c0.2-0.2,0.3-0.5,0.5-0.7c0.2-0.3,0.3-0.6,0.5-0.9c4.3-1.2,8.6-6,7-10.4
		c-0.1-0.3-0.5-0.2-0.4,0.1c1.4,4.1-2.4,7.4-6,9.2c0.2-0.4,0.5-0.9,0.7-1.4c0.1-0.1,0.2-0.3,0.2-0.5c0-0.1,0-0.1,0-0.2
		c3.1-2.1,5.1-6.3,4.7-9.9c0-0.2-0.2-0.3-0.3-0.3c-1.3,0.3-2.1,1.2-2.8,2.2c0.1-1.4,0-2.8,0-4c0-0.2-0.2-0.3-0.4-0.3
		c-1.9,0.8-3.2,2.4-3.8,4.3c-0.5-0.9-2.8-4.2-3.6-2.3c-0.1-0.3-0.2-0.7-0.2-1c0-0.3-0.3-0.4-0.5-0.2c-2.7,2.3-2.5,9.9,0.7,12.2
		c-1.4-0.4-2.7-1.1-3.8-2.2c-0.7-0.7-1.2-1.7-1.3-2.7c-0.2-1.2,0.6-2.2,1.1-3.2c0.1-0.1-0.1-0.3-0.2-0.2c-1.9,1.3-1.9,3.7-0.9,5.5
		c1.1,2,3.5,3.2,5.7,3.3c0.1,0,0.1,0,0.1-0.1c0.2,0.1,0.4,0.1,0.6,0.2c0.2,0.8,0.4,1.6,0.5,2.4c0,0.4,0.6,0.5,0.7,0.1c0,0,0,0,0,0
		c0.1,0,0.1,0,0.2-0.1c-0.5,5.8-1.6,12-3.4,17.9c0.3-2.2,0.3-4.4-0.1-6.7c-0.8-5.1-5.2-7.3-7.5-11.6c-0.1-0.2-0.5-0.1-0.4,0.2
		c1.2,4.9,0.6,9.9,1.3,14.9c0.6,5.3,3.2,9.5,2.3,15c-0.6,1.3-1.3,2.5-2,3.7c-2.2,2.7-4.2,5.6-5.9,8.6c-0.5-3.9-0.9-7.8-1.2-11.6
		c1.2-1.6,1.8-3.9,1.4-5.8c-0.1-0.3-0.4-0.3-0.5-0.1c-0.4,0.4-0.9,0.9-1.2,1.6c-0.4-4.7-0.7-9.4-0.9-14.1c0-1.2-0.1-2.3-0.1-3.5
		c1.6-1.5,2.5-4.2,2.4-6.3c0-0.3-0.3-0.4-0.5-0.2c-0.9,0.8-1.5,1.9-1.9,3c0-1.5,0.1-3.1,0.1-4.6c0,0,0,0,0-0.1
		c0.5-8.9,4.9-17.1,9.8-24.5c3.7-5.5,8.7-10,11.2-16.2c0.1,1,0,2-0.4,2.9c-0.3,1.2-0.7,2.3-1.1,3.5c-1.1,3.4-2.8,6.6-4.7,9.6
		c-3.2,5.1-8,8.9-11.6,13.6c-0.1,0.2,0.2,0.4,0.3,0.2c9.1-8.7,17.6-19,18.5-32.1c0-0.3-0.4-0.4-0.5-0.2c-4.2,5-9.4,8.9-13.4,14.1
		c-3.9,5.1-5.9,11.8-6.6,18.1c0,0.1,0.1,0.2,0.2,0.2c-0.5,1.3-0.9,2.6-1.2,3.9c0.6-7.9,1.7-15.8,2.6-23.7c1.3-1.4,2.3-3.3,2.6-5.1
		c0-0.2-0.3-0.3-0.4-0.3c-0.7,0.4-1.2,0.9-1.7,1.6c0.2-2,0.4-4,0.6-6.1c0.1-0.1,0.2-0.1,0.1-0.3c0-0.1-0.1-0.2-0.1-0.3
		c0-0.2,0-0.4,0-0.6c1.7-0.6,3.2-2.1,3.5-3.9c0.1,0,0.2-0.1,0.3-0.1c3.9,3,9.3-0.6,13.7-0.2c0.3,0,0.4-0.3,0.4-0.5
		c-0.5-2.7-3.4-3.3-5.8-3.2c2.3-1.7,3.4-4.1,4.8-6.6c0.1-0.2,0-0.5-0.3-0.5c-2.4-0.2-4.9-0.2-6.7,1.3c0.5-1.6,0.6-3.3,0.3-4.8
		c0-0.1-0.2-0.2-0.3-0.1C55.1,3.9,55,3.9,54.9,4c0,0,0,0,0,0c0.2-0.9,0.7-1,0.6-1.7c0-0.1-0.1-0.3-0.2-0.3c-2.8-0.7-4.6,1.2-5.7,3.5
		c-0.3-1.7-0.8-3.4-1-5.1c0-0.2-0.3-0.3-0.4-0.2c-3.1,0.8-3.8,3.8-3.9,6.7c-1-2.4-2.5-4.6-4.3-6.4c-0.2-0.2-0.5-0.1-0.5,0.1
		c-1.1,3.2-1.3,6.4-0.3,9.3c-1.6-1.6-3.5-2.9-5.5-3.8c-0.2-0.1-0.5,0.1-0.3,0.3c1.5,3,1.6,6.4,3.6,9.3c1,1.4,2.7,2.4,4.3,3.3
		c0.2,0.8,0.5,1.6,1,2.3c0.6,0.7,1.6,1.5,2.6,1.4c0,0,0,0,0,0c-0.7,5.6-1.6,11.2-2.3,16.8c-0.4-1.4-0.9-2.8-1.1-4.3
		c0.4,1.1,0.4,2.2,0.8,3.4c0.1,0.2,0.3,0.1,0.3,0c0.1-1.6-0.3-3.4-1.3-4.7c-0.2-0.2-0.5-0.2-0.5,0.1c-0.1,2.2,0.6,4.4,1.6,6.3
		c-0.8,5.8-1.5,11.6-1.9,17.5c-0.4-0.5-0.9-0.9-1.5-0.9c-0.2,0-0.3,0.2-0.3,0.3c0,1.5,0.6,3,1.2,4.3c0.1,0.2,0.2,0.6,0.4,0.8
		C40,65.3,40,68.2,40,71.2c0,2.7,0.1,5.4,0.2,8c-0.4-1.1-1.1-2.1-1.8-2.9c-0.2-0.2-0.6-0.1-0.6,0.2c0.3,2.6,1.2,5.1,2.6,7.3
		c0,0,0.1,0.1,0.1,0.1c0.5,7.8,1.3,15.5,2.3,23.3c-0.2,0.3-0.4,0.7-0.5,1c-1.5-7-4.9-13.6-8.4-19.9c0-0.1,0-0.1,0-0.2
		c0.3-0.9,0.3-2.1,0.2-3c-0.1-1.1-0.3-2.3-1.1-3.1c-0.2-0.2-0.5-0.1-0.6,0.2c-0.3,1-0.3,2-0.2,3c-0.3-0.5-0.6-1.1-0.9-1.6
		c-1.7-3.1-3.2-6.3-4.6-9.4c0,0,0.1,0,0.1,0c1.4-1.2,1.3-4.1,1.1-5.8c0-0.2-0.3-0.5-0.5-0.2c-1,1.3-1.3,2.9-1.3,4.6
		c-3.1-7.5-5.4-15.2-7.2-23.2c0,0,0,0,0,0c0.1-0.2,0.3-0.4,0.4-0.7c0.5-0.4,0.8-1,1-1.5c1.9-0.2,3.8-0.8,5.4-1.6
		c0.9-0.5,3.3-2.5,1.3-3.4c-0.1-0.1-0.3,0-0.3,0.2c0.3,0.8,0.6,1.2-0.1,1.9c-0.7,0.6-1.7,1-2.5,1.4c-1.2,0.5-2.5,0.9-3.9,1.1
		c1.7-0.6,3.5-1.7,4.7-2.8c2.1-1.7,3.7-3.8,4-6.5c0-0.2-0.2-0.3-0.3-0.3c-2.5-0.2-3.9,0.8-5.1,2.3c0.9-2.1,1.2-4.3,0.8-6.6
		c0-0.2-0.3-0.2-0.4-0.1c-1.3,1.4-2.4,2.8-3.3,4.5c-0.2-2.2-0.9-4.4-2.1-6.4c-0.1-0.1-0.3-0.2-0.4-0.1c-1.7,1.7-2.3,4.1-2.1,6.5
		c-1.2-1.7-2.5-3.2-3.5-4.6c-0.1-0.2-0.3-0.2-0.5-0.1c-2.1,2.6-1.7,6.2,0.1,8.9c-1.9-0.9-3.9-1.4-5.4-1.5c-0.2,0-0.4,0.2-0.3,0.4
		c1.4,5,6.1,7.1,10.9,7.7c0.1,0,0.1,0,0.1-0.1c0.1,0,0.1,0.1,0.2,0.1c0.2,0,0.4-0.2,0.2-0.3c-0.3-0.3-0.6-0.6-0.9-1
		c0-0.1,0-0.1,0-0.2c0.4,0.3,0.7,0.7,1,1.1c0,0,0,0,0,0c0,0,0,0,0,0.1c0,0.3,0.2,0.4,0.4,0.4c0,0.1,0,0.2,0.1,0.4
		c0,0.1-0.1,0.2-0.1,0.2c0,0,0,0,0,0c0,0,0,0,0,0c0,0,0,0,0,0.1c-0.1,0.3,0.1,0.6,0.3,0.6c0.8,3.8,1.7,7.5,2.7,11.2c0,0,0,0-0.1,0
		c-1.5,0-2.9-1.2-2.9-2.7c0.4,0.3,0.9,0.6,1.2,1.1c0.4,0.5,0.7,1,1.2,1.4c0.2,0.1,0.4-0.1,0.3-0.2c-0.2-0.6-0.7-1.2-1.1-1.6
		c-0.5-0.6-1.1-1.1-1.8-1.4c-0.2-0.1-0.4,0-0.4,0.2c-0.4,2,1.5,3.9,3.5,3.7c0.1,0,0.1-0.1,0.1-0.1c1.6,5.6,3.6,11.2,6.1,16.5
		c-1.3-1.7-2.6-3.3-3.9-5c-4.9-8.6-12.1-16.7-22.8-16.9c-0.2,0-0.3,0.3,0,0.4c5.5,1.2,10,2.5,14.3,6.2c2.5,2.2,4.5,4.9,6.4,7.7
		C15.9,63.6,9.6,58.1,1,56.4c-0.2,0-0.2,0.2-0.1,0.3c6.5,2.5,11.7,5.2,16.7,10.1c2.1,2,4,4.3,5.9,6.6c0,0,0,0.1,0.1,0.1
		c-2.7-2.8-6.5-4.2-9.9-5.9c-5.3-2.6-9.3-7-13.4-11.2c-0.1-0.1-0.4,0.1-0.2,0.2c3,3.4,6.1,6.6,9.8,9.3c4.4,3.2,9.5,4.8,13.8,8.1
		c0.1,0.1,0.2,0,0.3,0c0,0.1,0.1,0.1,0.1,0.2c0,0.1,0.1,0.1,0.2,0.1c1.3,1.6,2.6,3.3,3.9,4.9c3.2,6.4,6.6,12.5,9.4,18.8
		c-1-1.2-2.7-2.2-4.1-2.3c-0.3,0-0.4,0.3-0.3,0.5c0.9,1.6,2.7,3.1,4.7,3.1c0.2,0,0.2-0.1,0.2-0.3c0,0,0,0,0,0
		c1.4,3.3,2.7,6.8,3.7,10.4c-0.9,1.9-1.6,3.8-2.3,5.8c0.2-1.6,0.1-3.5-1.2-4.6c-0.2-0.2-0.5-0.1-0.6,0.2c-0.3,1.6,0,3.9,1.3,5.1
		c0,0.1,0,0.2,0,0.3c0,0.1,0.1,0.1,0.1,0.1c-0.8,2.4-1.4,4.8-1.9,7.3c-0.2,0.9-0.3,1.8-0.5,2.7c0.1-2,0.2-4,0.2-6.1
		c0-4.8-1.7-9-2.6-13.6c-0.1-0.3-0.6-0.3-0.7,0c-2.2,9.3-0.9,18.8,2.4,27.7c-0.2,7.7,0.9,15.4,2.8,22.9c-2.8-5.1-7-9.7-11-14
		c-0.1-1-0.2-2.1-0.4-3.1c1.1-3.1,2.9-6.5,1.6-9.7c-0.1-0.3-0.4-0.3-0.6,0c-0.4,1-0.9,1.8-1.4,2.7c0.1-1.7,0.1-3.5,0.1-5.1
		c0-0.2-0.2-0.4-0.4-0.3c-2.5,1-3.5,3.6-3.4,6.3c-1.4-1.9-3.3-3.4-5.4-4.5c-0.2-0.1-0.4,0-0.4,0.3c0,2.1,0.9,4.3,1.9,6.1
		c-0.1-0.1-0.2-0.1-0.2-0.2c-1.3-0.9-4-2.5-5.5-1.1c-2.2,2,0.2,3.8,2.9,4.9c-0.4,0-0.8,0-1.2,0c-3,0.3-3.3,2.8-2.2,5.2
		c0.1,0.3,0.5,0.2,0.6,0c2.1-3,7.6-1.8,10.6-1.4c0.2,0,0.3-0.2,0.1-0.3c-2.9-1.2-8.4-1.8-10.9,0.8c-0.4-1-0.6-2.1,0.2-2.9
		c0.8-0.8,2.3-0.7,3.4-0.6c2.2,0.2,3.9,1.3,5.9,1.9c0,0,0.1,0,0.1,0c1,0.6,2.1,1,3.1,1.1l0,0.1c0.1,0.3,0.5,0.3,0.6,0.2
		c0.1,0.1,0.2,0.1,0.3,0.1c0,0.2,0.1,0.3,0.1,0.5c0.1,0.3,0.6,0.3,0.6-0.1c0-0.1,0-0.1,0-0.2c2.1,2.3,4,4.7,5.9,7.2
		c2.3,3,3.9,6.4,6,9.5c0.1,0.3,0.1,0.5,0.2,0.8c0.4,1.5,0.9,2.9,1.4,4.4c-4.9-7.6-13-15.2-21.1-15c-0.3,0-0.5,0.4-0.3,0.6
		c3.6,3.9,6.1,9.2,10.3,12.5c3.5,2.7,8,4.3,11.4,7c0.6,0.8,1.3,1.6,1.9,2.4c0.1,0.1,0.3,0,0.2-0.2c-0.1-0.2-0.2-0.3-0.3-0.5
		c0.3,0.4,0.7,0.8,1,1.2c1.3,3.2,2.7,6.3,4,9.5c-0.2-0.1-0.5-0.3-0.8-0.4c-0.6-1-1.5-2-2.2-2.8c-0.8-0.9-1.8-1.9-3.1-2.2
		c-0.3-0.1-0.6,0.2-0.5,0.5c1.1,2.7,4,5,6.8,5.8c1.9,4.9,3.6,9.9,4.5,15.2c0,0.9-0.1,1.8-0.2,2.7c-0.5-2.2-1.6-4.5-3.4-5.2
		c-0.3-0.1-0.6,0.1-0.6,0.5c0.4,2.9,1.1,6.7,3.7,8.4c-0.8,8.7-2.3,17.4-4.7,26.2c-0.1,0.3,0.4,0.4,0.5,0.1
		c2.6-6.4,4.2-12.9,5.2-19.6c2.7-2.2,5.4-6.5,4.9-10c0-0.2-0.3-0.5-0.5-0.3c-2.2,1.5-2.8,3.8-3.9,6c0.6-5.7,0.7-11.6,0.5-17.4
		c2-2.3,2.6-5.6,3.2-8.5c0.1-0.3-0.2-0.6-0.5-0.4c-0.6,0.4-2,2.5-2.9,4.5c0-0.4,0-0.8-0.1-1.3c0.5-5.5,1.1-10.9,1.9-16.2
		c3.8-4.3,6.9-9.2,10.2-13.9c4.8-6.8,9.4-13.4,12.9-21c0.1-0.3-0.1-0.6-0.4-0.5C69.6,136.2,63,144,59.2,153c0.8-4,1.7-7.9,2.6-11.9
		c0,0,0,0.1,0,0.1c0,0.1,0.3,0.1,0.3,0c0.2-0.7,0.2-1.6,0.2-2.4c0.6-2.3,1.2-4.6,1.8-6.9c2-1,3.9-2.9,4.8-4.8
		c0.1-0.3-0.1-0.6-0.4-0.5c-1.3,0.3-2.6,1.2-3.5,2.2c0.4-1.6,0.9-3.2,1.3-4.8c0,0,0,0,0,0c1.2-0.8,2.2-1.6,3.2-2.6
		c-0.1,0.2-0.2,0.3-0.3,0.5c-0.1,0.1,0.1,0.3,0.2,0.2c0.3-0.2,0.6-0.5,0.8-0.8c3.1,0.1,7-2.4,9-4c0.2-0.2,0-0.6-0.2-0.6
		c-1.9,0.1-3.9,0.6-5.8,1.3c2.4-1.9,4.4-4.3,5.9-6.8c0.1-0.2,0-0.5-0.3-0.5c-2.8-0.1-4.8,1.2-6.6,3.1c0.8-2.6,0.7-5.4-0.5-7.7
		c-0.1-0.2-0.4-0.2-0.5-0.1c-1.7,1.5-2.9,3.6-3.6,5.8c-0.3-1.2-0.8-2.3-1.5-3.3c-0.6-0.7-3.5-3.4-4.3-1.6c-1.1,2.3-0.2,5.1,0.6,7.4
		c-1.4-1-3-1.6-4.5-1.2c-0.2,0-0.3,0.2-0.3,0.4c0,3.7,3.6,7.6,7.4,7.8c0.2,0.7,0.5,1.4,0.7,2.1c0,0,0.1,0.1,0.1,0.1c0,0,0,0.1,0,0.1
		c0,0.1,0,0.1,0,0.2c-0.7,2.2-1.4,4.4-2.1,6.6l0,0c0,0,0,0.1,0,0.1c-0.1,0.3-0.2,0.6-0.3,0.9c-0.3,0.2-0.6,0.4-0.9,0.7
		c-0.2,0.1,0,0.4,0.2,0.4c0.1,0,0.3-0.1,0.4-0.1c-0.4,1.3-0.8,2.6-1.2,3.9c-0.3-1.4-0.9-2.6-1.7-3.6c-0.1-0.2-0.4-0.1-0.5,0.1
		c-0.4,2,0.4,4.6,1.4,6.5c-0.7,2.5-1.3,4.9-2,7.4c-0.1-1.8-0.5-3.7-1.5-5.1c-0.1-0.2-0.4-0.2-0.5,0c-1,2.1,0,5.3,1.5,7.1
		c0,0,0,0.1,0,0.1c-1.5,6.3-2.8,12.7-3.7,19.1c-0.5,1.2-1.1,2.4-1.7,3.5c-0.2,0.3,0.3,0.5,0.4,0.2c0.1-0.2,0.2-0.5,0.4-0.7
		c0.1,0.1,0.2,0.1,0.4,0c0.1-0.1,0.1-0.1,0.2-0.2c-0.3,2.3-0.5,4.5-0.7,6.8c-0.8-8.1-2.1-16.2-3.4-24.2c0,0,0,0,0,0
		c0,0,0.1-0.1,0.1-0.1c1.7-2.4,2.8-6,1.8-8.7c-0.1-0.2-0.4-0.4-0.6-0.2c-0.9,1.2-1.7,2.7-2,4.2c-0.9-5.8-1.9-11.5-2.6-17.1
		c-0.4-3.1-0.8-6.1-1.2-9.2c1.4-1.7,2.4-4.4,2.2-6.6c0-0.3-0.4-0.5-0.6-0.3c-0.8,0.9-1.6,2.2-2,3.5c-0.5-3.9-1-7.8-1.5-11.7
		c1.4-2.7,3-5.2,4.8-7.7c0.1,0,0.2,0,0.2,0c0.8-0.6,2.3-0.8,3.4-0.7c-0.4,0.5-0.8,0.9-1.4,1.3c-0.8,0.5-1.6,0.4-2.6,0.5
		c-0.2,0-0.4,0.4-0.1,0.5c1.9,0.9,4-0.9,5-2.3c0.1-0.2,0-0.4-0.2-0.5c-1.1-0.3-2.6-0.2-3.7,0.5c1.4-1.8,2.8-3.5,4.4-5.2
		c0.9-0.9,1.9-1.9,2.8-2.8c2-1.1,4.4-1.9,6.5-2.7c5.1-2,9.9-3.3,15.4-3.9c0.2,0,0.2-0.4,0-0.4c-5.9-0.2-11.2,2-16.6,4.1
		c-1.3,0.5-2.7,1-4,1.6c0,0,0,0,0.1,0c3-1.4,5.7-3.3,8.5-4.9c3.4-1.9,7.4-2.2,11.2-2.2c2,0,11.5-0.4,7,2.4
		c-5.8,3.5-10.8,4.5-17.4,4.7c-4.3,0.1-8.3,0.7-12.1,2.9C54.9,92.8,55,93,55.2,93c6.4-2.5,12.6-2.3,19.2-2.8c5-0.4,9.4-3.9,13.6-6.3
		c0.3-0.1,0.2-0.6-0.1-0.7c-5.6-0.9-11-1.6-16.7-0.7c-4.4,0.7-8,3.5-11.8,5.8c2.4-2.2,4.8-4.3,7.2-6.5c2.3-2.2,4.6-4.2,7.1-6.1
		c1,0.4,2.1,0.7,3.2,0.6c0.6-0.1,1.7-0.6,1.5-1.4c-0.1-0.7-1-0.9-1.5-1.1c-0.1,0-0.3-0.1-0.5-0.1c1.4-1,2.9-2,4.4-2.8
		c0.1,0.1,0.2,0.2,0.3,0.2c0.1,0,0.2,0,0.3,0c0.4,0.3,0.8,0.5,1.3,0.6c0.1,0,0.2,0,0.3-0.1c0,0,0.1,0,0.2,0c0.1,0,0.1,0,0.2,0
		c2.4,4.2,6,8.1,11.1,8.2c0.3,0,0.4-0.3,0.3-0.5c-0.8-1.9-1.8-3.7-3.4-5c2.4,0.1,4.7-0.5,6.2-1.6C97.9,72.5,97.9,72.3,97.8,72.2z
		 M58.6,74.8c0.1-0.1,0.1-0.2,0.2-0.3c0.2-0.3,0.4-0.5,0.6-0.8c0.3-0.3,0.6-0.6,0.9-0.9c-0.1,0.6-0.5,1.1-0.9,1.6
		c-0.2,0.2-0.4,0.4-0.6,0.6C58.8,75,58.7,74.8,58.6,74.8C58.6,74.8,58.6,74.8,58.6,74.8C58.6,74.8,58.6,74.8,58.6,74.8z M64.3,53.1
		c0.2-0.4,0.4-0.7,0.6-1.1c0,0,2.1-2.1,2.1-1.3c0,1.6-0.4,3.1-1.1,4.5c-0.8,1.8-2.1,3-3.6,4.1C63.5,57.6,64.1,55.3,64.3,53.1z
		 M60.6,52c0.3-0.6,0.7-1.4,0.5-1c0.1-0.2,0.2-0.4,0.4-0.6c0.5-0.9,1.3-1.5,2.3-1.8c0,1.3,0,2.6-0.1,4c-0.2,3-1.2,5.2-3,7.1
		c0-0.1,0-0.2,0-0.4c1.1-2,0.8-4.6-0.1-6.7c0-0.2,0.1-0.3,0.1-0.5C60.6,52.1,60.6,52.1,60.6,52z M58.4,60.3c-0.1-0.3-0.3-0.7-0.4-1
		c-0.2-0.3-0.7-0.1-0.6,0.2c0.2,0.4,0.3,0.9,0.5,1.3c-3.5-1.3-4.1-8.7-1.9-11.5c0.2,1.3,0.7,2.6,1.3,3.9
		C58.3,55.8,58.9,57.7,58.4,60.3z M59.1,61.2C59.1,61.2,59,61.3,59.1,61.2c-0.1,0.1-0.1,0.2-0.1,0.3c0,0.1-0.1,0.3-0.1,0.4
		c-0.1-0.2-0.1-0.4-0.2-0.6c0.1-0.1,0-0.2-0.1-0.3c0,0,0,0,0,0c2.3-3.3-0.8-7.3-1.8-10.8c0,0,0.1,0,0.1-0.1c0.6-1.8,3.4,3.3,3.5,3.7
		c0.5,1.5,0.4,3,0,4.4c-0.2,0-0.3,0.1-0.4,0.3C59.6,59.4,59.3,60.3,59.1,61.2z M42.8,66.5c-0.1,0.9-0.3,1.8-0.7,2.7
		c-0.3,0.6-0.6,1.1-0.9,1.6C41.2,69.3,41.7,67.8,42.8,66.5z M48.8,36.6c3.4-5.4,8.8-9.3,13.1-14C57,32.9,47.8,41.4,43.3,51.9
		C44.2,46.4,45.9,41.3,48.8,36.6z M47.5,18.4c-0.5,0.5-0.8,1.1-1.1,1.7c0.3-0.8,0.6-1.6,1.1-2.3c0.1,0,0.1,0,0.2-0.1
		C47.6,18,47.5,18.2,47.5,18.4z M60.4,15.4c0.3,0.1,3.4,2.1,1.9,1.9c-0.8-0.1-1.5,0-2.3,0.1c-3.6,0.5-6.4,1.7-9.8,0.6
		c2.4-0.7,4.7-1.8,6.8-3.2c0,0.1,0.1,0.1,0.2,0.1C58.2,14.9,59.3,15.1,60.4,15.4z M60.7,8c1,0,0.6,0.2,0.2,1c-0.5,0.9-1,1.8-1.6,2.7
		c-2.3,3.4-6.5,4.6-10.1,6.1c0,0,0,0-0.1,0c0,0,0,0-0.1,0c-0.1-0.2-0.3-0.3-0.5-0.3c0-0.1,0-0.1,0-0.2c2.9-1.6,5.4-4.6,6.6-7.8
		C56.5,7.9,58.6,7.9,60.7,8z M54.8,4.6c0.7-0.3,0.1,3.1,0,3.4c-0.4,1.5-1.1,2.8-1.9,4c-1.2,1.8-2.7,3.3-4.4,4.5
		c1.9-1.6,3.6-3.5,4.8-5.6c0.7-1.1,1-2.3,1.2-3.6C54.6,6.4,54.7,5.5,54.8,4.6z M49.6,9.1c0.2-0.9,0.2-1.8,0.1-2.7
		c0.9-1.5,1.7-3.1,3.5-3.9c2.2-0.9,0.9,2.4,0.8,3.1c-0.4,3-1,4.9-2.9,7.3c-1,1.2-2.2,2.3-3.3,3.3c0,0,0,0,0,0c0,0,0,0,0,0
		c-0.4,0.3-0.7,0.7-1.1,1C48,14.6,49.1,11.9,49.6,9.1z M39,6.7c-0.1-1.2,0.1-2.4,0.3-3.5C39.6,1.1,39.8,1,41.4,3
		c3.2,4.1,3.6,8.7,3,13.7c-0.2-0.6-0.6-1.2-1-1.8c-0.2-0.2-0.6,0-0.5,0.2c0,0.1,0,0.3,0,0.4c-0.6-1.7-1.6-3.3-2.8-4.7
		C39.4,9.5,39.1,8.2,39,6.7z M41.4,17.5c0-0.3-0.4-0.3-0.4,0c0,0.2,0,0.4,0,0.6c-1.1-0.7-2.2-1.4-3.2-2.3c-1.6-1.4-2.2-3.5-2.7-5.5
		c-0.2-0.6-0.6-3.4-1.1-3.6c2.1,1.2,4.1,2.7,5.6,4.6c0.2,0.2,0.4,0.4,0.5,0.7c0.1,0.2,0.3,0.4,0.4,0.6c1,1.5,1.5,3.2,2,4.9
		c-0.1,0.1-0.2,0.2-0.1,0.3c0.1,0.4,0.2,1,0.4,1.5c-0.4-0.3-0.9-0.6-1.3-0.9C41.5,18.1,41.4,17.8,41.4,17.5z M44.4,21.8
		c-0.1,0-0.2-0.1-0.3-0.1c-0.5-0.2-1-0.6-1.4-1c-0.4-0.4-0.7-0.9-0.9-1.4c0.4,0.2,0.9,0.5,1.3,0.7C43.3,20.8,43.7,21.4,44.4,21.8
		C44.4,21.7,44.4,21.8,44.4,21.8z M44.5,17c0.1,0.1,0.3,0,0.4-0.1c1-3,0.8-6.1-0.2-9c0.1-1.3,0.2-2.6,0.5-3.8c0-0.1,2.7-4.3,2.8-2.6
		c0.1,0.7,0.3,1.5,0.5,2.2c1.1,4.8-0.4,8.5-2.1,12.6c0-0.1,0-0.2,0-0.2c-0.1-0.4-0.7-0.4-0.8,0c-0.2,1-0.4,2-0.6,3
		C44.8,18.3,44.7,17.6,44.5,17z M44.5,30.6c0.4-0.7,0.9-1.4,1.5-1.9c-0.3,1.2-1,2.2-1.7,3.2C44.4,31.5,44.5,31.1,44.5,30.6z
		 M38.7,77.7c0.9,1.3,1.1,2.8,1.5,4.4C39.5,80.6,38.9,79.2,38.7,77.7z M40.2,61c-0.1-0.2-0.2-0.5-0.2-0.7c-0.3-0.8-0.6-1.7-0.7-2.6
		c0.7,0.2,0.9,0.9,1,1.6C40.3,59.9,40.3,60.4,40.2,61z M42.1,91c0.3-0.8,0.7-1.5,1.1-2c0.1,1.4-0.4,2.6-1,3.9
		C42.2,92.2,42.2,91.6,42.1,91z M27.5,37.8c1.5-0.1-0.1,2.5-0.4,3.1c-0.8,1.2-1.9,2.2-3,3.1c-1.2,0.9-2.5,1.5-3.8,2
		c0.1-0.4,0.1-0.8,0.2-1.2C22.8,42.4,23.6,38.1,27.5,37.8z M20.5,37.8c0.1,0,0.2,0,0.2-0.1c0.5-0.8,3-5.2,3.2-2.9
		c0.2,1.8-0.4,3.5-1.2,5.1c-0.7,1.4-1.6,2.5-2.7,3.6c-0.1,0-0.3,0-0.4,0.2c0-0.3,0-0.6,0-0.9C20.4,41.1,20.6,39.4,20.5,37.8z
		 M7.1,41c3,0.4,6,1.8,7.9,4c-0.1,0.1-0.2,0.3-0.1,0.5c0.4,0.6,1,1.7,1.7,2.3C12.6,47.1,8.5,45.1,7.1,41z M16.9,44.1
		c-0.1,0.5-0.1,1,0,1.5c0,0.1,0,0.1-0.1,0.2c-0.2-0.1-0.3-0.2-0.5-0.3c-0.1-0.2-0.2-0.4-0.3-0.6c0-0.1,0-0.2-0.1-0.3
		c-0.1,0-0.1-0.1-0.2-0.1c-0.7-0.8-1.6-1.6-2.6-2.1c-0.6-0.8-1.1-1.8-1.5-2.7c-0.4-0.9-0.5-1.9-0.5-2.9c0-0.7,0.5-3.9,1.5-2.5
		c1.2,1.6,2.6,3.3,3.6,5c0.2,0.9,0.6,1.8,1.1,2.6c0.1,0.6,0.2,1.3,0.2,2C17.1,43.8,17,43.9,16.9,44.1z M18.1,44.6
		c0-0.1-0.1-0.1-0.1-0.2c0.1-0.6,0.2-1.1,0.1-1.7c0,0,0-0.1,0-0.2c0,0,0,0,0,0c-0.2-1.4-0.8-2.8-1.6-4.1c-0.3-1.9-0.1-3.9,0.7-5.7
		c1.4-3,2.7,3.5,2.8,4.6c0.2,1.6-0.2,3.1-0.7,4.6c-0.2,0-0.3,0-0.4,0.2C18.5,42.9,18.2,43.8,18.1,44.6z M27.3,69.5
		c0,0.7,0,1.3-0.1,2c-0.1,0.6-0.3,1.1-0.5,1.7C26.7,71.8,26.7,70.6,27.3,69.5z M33.2,86.8c-0.4-1.1-0.5-2.3-0.3-3.5
		C33.5,84.3,33.3,85.5,33.2,86.8z M34.2,96.5c1.3,0.4,2.1,1.4,3.1,2.1C36,98.2,34.9,97.5,34.2,96.5z M38.2,111.5
		c0.6,0.8,0.6,1.9,0.6,3C38.4,113.6,38.1,112.6,38.2,111.5z M35.7,130.2c-0.4-3.6-1-7.1-0.9-10.7c0-0.3-0.5-0.3-0.5,0
		c-0.1,4,0.4,8,1.2,12c0,0,0,0,0,0.1c0,0.1,0,0.1,0,0.2c-2.2-7.5-3.1-15.3-1.7-23.2c0,0,1.1,3.6,1.2,3.7c0.8,2.6,1,5.2,1.1,7.9
		C36.3,123.5,36,126.8,35.7,130.2z M24.9,129.9c0.5-1,1.5-2,1.5-0.2c0,1.2-0.1,2.3-0.2,3.5c-0.1,1.4-0.3,2.8-0.4,4.2
		c0,0,0,0-0.1-0.1c-0.2-0.2-0.6,0-0.6,0.2c0,0,0,0.1,0,0.1c-0.2-0.9-0.6-1.8-1.1-2.6C23.8,133.4,24.1,131.5,24.9,129.9z M25.1,140.5
		c-0.1,0-0.1,0-0.1,0.1c-0.2-0.2-0.4-0.5-0.6-0.7c-0.2-0.5-0.2-0.9-0.2-1.4c0.3,0.3,0.5,0.6,0.7,1C24.9,139.8,25,140.1,25.1,140.5z
		 M18.1,130.2c1.8,1,3.4,2.3,4.6,4c0.4,0.5,0.7,1,0.9,1.6c0.2,0.6,0.4,1.2,0.6,1.8c0-0.1-0.1-0.1-0.2-0.2c-0.2-0.2-0.5,0-0.6,0.2
		c0,0.5,0,1,0,1.5c-0.3-0.3-0.7-0.5-1-0.7c-0.6-0.7-1.4-1.3-2.2-1.9c-0.3-0.5-0.5-1-0.7-1.3C18.9,133.7,18.2,131.9,18.1,130.2z
		 M20.7,140.1c-0.8-0.3-1.6-0.5-2.4-0.6c-0.7-0.3-1.3-0.5-2-0.8c-0.8-0.4-1.5-0.8-2.2-1.4c-1.1-1-0.8-2.4,0.7-2.6
		c1.8-0.2,3.9,1.5,5.1,2.6c0.1,0.1,0.2,0.2,0.3,0.3c0.5,0.8,1.2,1.6,1.9,1.9c0.1,0.1,0.2,0.2,0.3,0.3c0.1,0.1,0.1,0.2,0.2,0.3
		c-0.6-0.2-1.2-0.3-1.8-0.2C20.8,140,20.7,140,20.7,140.1z M22,140.6c0.7,0.1,1.4,0.4,2,0.7c0.4,0.3,0.9,0.7,1.4,0.9
		c0.1,0,0.2,0,0.3,0c0.1,0,0.2,0,0.3-0.1c0.1,0.2,0.1,0.4,0.2,0.6C24.6,142.4,23.2,141.5,22,140.6z M26.6,141.9
		c-0.1-0.3-0.2-0.5-0.3-0.8c-0.1-0.4-0.2-0.9-0.3-1.3c0-0.2,0.1-0.3,0.1-0.5c0.2,0.6,0.4,1.1,0.5,1.7c0,0,0,0,0,0.1
		c0,0.1,0,0.1,0.1,0.2c0,0.2,0.1,0.5,0.1,0.8C26.7,142,26.7,142,26.6,141.9z M27.1,137.4c0-0.2-0.3-0.3-0.4-0.2c0.2-1,0.2-2,0.3-3
		c0,0,0,0,0,0c0.9-0.8,1.4-1.7,1.7-2.8c0.6,2.5-0.5,5.1-1.4,7.6C27.2,138.5,27.2,138,27.1,137.4z M43.1,179c1,0.6,1.8,1.6,2.5,2.6
		C44.6,181,43.8,180.1,43.1,179z M50,198c1.9,1.4,1.9,4.4,2.6,6.7C51,202.8,50.4,200.3,50,198z M56.9,183.8c-0.5,2-1.2,3.9-2.1,5.7
		c0-0.5,0-0.9-0.1-1.4C55.2,186.8,56.2,185,56.9,183.8z M77.4,118c-1.9,1.4-4.3,2.6-6.7,2.8c0.1-0.2,0.2-0.4,0.3-0.6
		c0.1-0.1,0-0.3-0.1-0.3C73.1,119.4,75.3,118.6,77.4,118z M78.3,111.5c-1.2,2-2.7,3.7-4.4,5.2c-1,0.9-2.1,1.6-3.1,2.4
		c-0.5,0.2-0.9,0.4-1.4,0.6c-0.2,0.1-0.2,0.4,0,0.4c-0.2,0.2-0.5,0.4-0.7,0.6c-0.2,0-0.3-0.1-0.5-0.1c0.1-0.3,0.3-0.6,0.4-0.9
		c1.3-1.2,2.4-2.7,3.2-4.4C73.5,113.2,75.5,111.6,78.3,111.5z M71.2,107.1c0.5-0.6,1.1,3.5,1,3.1c0.1,1.6-0.5,3.1-1.1,4.5
		c-0.5,1.3-1.3,2.3-2.2,3.3c0-0.2,0.1-0.3,0.1-0.5c0-0.4-0.5-0.6-0.8-0.3c-0.1,0.1-0.2,0.2-0.2,0.3c0-0.3,0-0.6,0-0.9
		c0-0.1-0.1-0.2-0.1-0.3c0.1-1,0.1-2,0-3.1C68.5,111,69.6,108.8,71.2,107.1z M58.6,115.1c-0.4-1.2-0.1-1.5,1.1-1.2
		c0.8,0.2,1.6,0.7,2.2,1.2c0.5,0.4,0.9,0.8,1.3,1.3c0.3,0.8,0.7,1.5,1.2,2.2c0.1,0.7,0.3,1.4,0.4,2.1C62,120,59.5,118.1,58.6,115.1z
		 M63.4,115.3c-0.7-1.7-1.2-3.6-1.4-5.3c-0.1-0.7-0.1-3.4,1.6-2.6c1.6,0.8,2.6,2.2,3.3,3.9c0.3,0.7,0.4,1.5,0.5,2.3
		c-0.2,1.2-0.4,2.4-0.3,3.6c-0.1,0.2-0.2,0.4-0.3,0.6c-0.1-0.6-0.3-1.2-0.6-1.7c-0.1-0.3-0.6-0.2-0.6,0.2c0.1,1.1,0.4,2.2,0.7,3.3
		c-0.3-0.3-0.6-0.7-0.9-1c0,0,0,0,0-0.1C65,117.4,64.3,116.3,63.4,115.3z M65.5,121.4c0.1,0,0.2,0,0.3,0c0,0,0,0,0.1,0
		c0.1,0.4,0.3,0.9,0.4,1.3c-0.1,0.2-0.1,0.3-0.2,0.5C65.9,122.6,65.7,122,65.5,121.4z M64.5,130.7c0,0,0.1-0.1,0.1-0.1
		c0.2-0.1,0.1-0.3,0.1-0.4c0.9-1.1,2-2.2,3.3-2.7c-0.9,1.4-2.1,2.3-3.5,3.2C64.5,130.8,64.5,130.8,64.5,130.7z M60.3,133.8
		c0.7,1.2,1,2.5,1.1,3.8C60.9,136.4,60.3,135.1,60.3,133.8z M57.5,142.5c0.9,1.6,1,3.4,1.1,5.2C57.8,146.1,57.1,144.1,57.5,142.5z
		 M57.3,163.7c1-2.6,2-5.2,3.5-7.6c3-5.1,7.1-9.6,9.7-15c0.1-0.2-0.2-0.4-0.3-0.2c-3.1,5.1-6.6,9.9-9.8,14.9
		c-1.1,1.7-1.9,3.5-2.6,5.3c0.3-1.7,0.6-3.3,0.9-5c3.4-9.5,9.8-18.1,19.3-21.6c0,0-3,6.8-3.4,7.6c-1.9,3.3-4.1,6.5-6.4,9.6
		c-3.8,5.3-7.4,10.6-11.4,15.7C56.9,166.2,57.1,165,57.3,163.7z M54.2,209.9c1.3-2.2,1.8-5.1,3.8-6.7c-0.3,3.1-2.2,5.4-4,7.8
		C54.1,210.6,54.1,210.2,54.2,209.9z M37.3,138.9c0.6-1.6,1.1-3.3,2-4.8c0,1.8-1.1,3.4-2,5C37.3,139.1,37.3,139,37.3,138.9z
		 M42.3,170.7c-1.4-2.1-3.1-4-4.7-5.8c-2.4-2.7-5.6-4.4-8-7.1c-0.2-0.2-0.4,0.1-0.3,0.3c2.1,2.5,4.9,4.1,7.1,6.5
		c1.4,1.5,2.6,3,3.8,4.6c-1.3-0.9-2.7-1.7-4.1-2.4c-5.7-3.2-8.9-7.2-12.7-12.4c-1.3-1.8-4-3.5,0.4-2.5c3.5,0.9,6.6,3.6,9.2,5.9
		c4.3,3.8,7.3,8.1,10.1,12.8c0.2,0.5,0.4,1,0.6,1.6C43.3,171.6,42.8,171.1,42.3,170.7z M43.6,168.8c-0.2-5.3-1.2-10.5-0.7-15.8
		c0-0.2-0.2-0.2-0.3,0c-0.5,4.5-0.3,9.1,0.2,13.7c-0.5-1.3-0.9-2.7-1.4-4.1c0-0.1,0.1-0.1,0-0.2c-1.2-5.3-1.6-10.2-0.4-15.6
		c0.7-2.9,1.7-5.7,2.5-8.6c0.2,3.8,1.1,7.7,1.1,11.4c-0.1,6.7-0.5,13.3-0.8,19.9C43.7,169.3,43.7,169,43.6,168.8z M51.8,145.6
		c0.5,2.3-0.7,4.3-1.6,6.4C49.9,149.9,50.6,147.4,51.8,145.6z M47.2,117c-0.1,0.8-0.3,1.6-0.6,2.4c-0.3,0.7-0.6,1.3-0.9,2
		c0-0.1,0-0.2,0-0.2C45.8,119.6,46.3,118.1,47.2,117z M44.9,123.3c1.4,10.2,3,20.5,4.6,30.7c0,0,0,0,0,0c0,0.1,0,0.2,0.1,0.2
		c0.6,3.9,1.1,7.8,1.7,11.8c-0.8-1.5-2.1-2.8-3.6-3.4c-0.2-0.1-0.5,0.1-0.5,0.4c0.1,2.5,1.9,4.9,4.4,5.4c0.4,3.2,0.8,6.5,1.1,9.7
		c0.5,5.1,0.8,10.1,0.8,15c-2-8-6.4-15.8-9.4-23.1c0,0,0,0,0,0c0.1,0,0.2,0,0.2-0.1c1.1-4.6,1-9.5,1-14.2c0.1-5.3,0.4-10.6-0.5-15.9
		c0.1-1.3-0.1-2.5-0.7-3.6c0.2-0.8,0.4-1.7,0.5-2.6c0.1-0.5-0.6-0.7-0.7-0.2c-0.1,0.6-0.2,1.3-0.3,1.9c0,0,0,0,0,0
		c-0.3,1.3-0.6,2.5-1,3.8c-0.9,3.2-2,6.2-2.7,9.5c-0.6,2.8-0.5,5.7-0.1,8.6c-1.3-5.3-2.2-10.8-2.5-16.2c0.8-1.1,1.3-2.6,1.9-3.8
		c0.5-1.3,1-2.7,0.6-4.1c-0.1-0.3-0.5-0.4-0.7-0.1c-0.8,1.2-1.5,2.5-1.9,3.9c0-1.9,0-3.7,0.1-5.6c0.4-7.1,2-13.9,4.8-20.2
		c0.1,0.5,0.3,1,0.4,1.5c0,0.2,0.4,0.2,0.4-0.1c-0.1-0.8-0.2-1.6-0.3-2.4c0.1-0.3,0.3-0.6,0.4-0.9C43.6,113.8,44.3,118.6,44.9,123.3
		z M51.2,167.8c-1.7-0.7-3-2.4-3.3-4.2C49.5,164.5,50.3,166.2,51.2,167.8z M51.2,83.8c-1.5-5.8-1.6-11.1-2-17
		c-0.1-1.2-0.2-1.4-0.6-2.2c0.7,1.3,2.1,2.5,3.1,3.5c4.8,5,4.2,11.9,2.5,18.1c0,0.1,0,0.2,0.1,0.2c-0.2,0.6-0.4,1.2-0.6,1.7
		c1.2-5.5,0.3-12-1.8-16.9c-0.1-0.2-0.3,0-0.3,0.1c0.8,3.4,1.6,6.7,1.8,10.2c0.2,2.8-0.3,5.5-0.4,8.3c-0.3,0.8-0.7,1.6-1.1,2.4
		C52.3,89.4,52,86.8,51.2,83.8z M70.2,73.3c0.5,1.4-0.4,2.6-1.2,3.9C68.9,75.8,69.4,74.4,70.2,73.3z M77.7,74.9
		c0.1,0.1-0.1,0.2-0.3,0.3c-0.4,0.2-0.7,0.3-1.2,0.3c-0.7,0-1.3-0.2-1.9-0.3c0.4-0.3,0.9-0.7,1.3-1c0.2,0,0.4,0,0.5,0.1
		C76.6,74.4,77.3,74.6,77.7,74.9z M81.4,69.4c-0.1,0-0.2,0-0.3,0c-1.6-1.6-2-3.7-2.1-5.8c0-1.1,0.1-2.3,0.3-3.4
		c0.1-0.3,0.1-0.7,0.2-1c0-0.1,0-0.4-0.1-0.6c0,0,0,0.1,0.1,0.1c0.2,0.4,0.4,0.8,0.6,1.2c0.2,0.4,0.6,0.7,0.9,1
		C81.1,63.7,81.3,66.6,81.4,69.4C81.4,69.5,81.4,69.4,81.4,69.4z M90.5,64.4c1.3-0.6,2.9-1.1,4.3-0.8c2.1,0.5,0.7,2.2-0.2,2.9
		c-2.5,1.8-5.5,2.5-8.4,3.3c-0.1-0.1-0.2-0.2-0.4-0.2c-0.5,0.1-0.9,0.1-1.4,0.2c0.7-0.4,1.3-1,1.8-1.7c0.1-0.3,0-0.6-0.3-0.7
		c0.2-0.2,0.5-0.5,0.8-0.7c0.2-0.1,0.3-0.3,0.5-0.4C88.3,65.5,89.5,64.9,90.5,64.4z M86.5,62.6c0.5-1,1.2-2,2.1-2.8
		c0.3-0.3,3.5-2,3.3-1.2c-1,4.4-4.3,6.6-7.6,9.1C84.9,65.9,85.6,64.2,86.5,62.6z M81.8,68.6c-0.1-3.7-0.3-7.4,0.3-11.2
		c0-0.1,1-3.7,1.5-2.9c0.8,1.2,1.4,2.4,1.8,3.8c0.8,2.4-0.1,4.5-1.2,6.6c-0.1-0.1-0.3-0.1-0.4,0.1c-0.9,1-1.5,2.2-1.9,3.5
		C81.9,68.5,81.9,68.6,81.8,68.6z M82.6,69.6c0-0.1-0.1-0.1-0.2-0.1c0-0.1,0-0.1,0-0.2c0.6-0.1,1.2-0.3,1.8-0.5
		C83.8,69.2,83.2,69.5,82.6,69.6z M94.1,79c-4.4-0.3-7.7-3.8-10-7.4c0.1,0,0.3,0,0.4,0.1c1.4,1.4,3.8,2.3,6.2,2.5
		C92.1,75.6,93.2,77.2,94.1,79z M90.3,73.2c-1.8-0.3-3.4-0.9-5-1.8c0-0.1,0-0.2,0-0.3c1.2-0.2,2.5-0.7,3.7-1.2
		c3.1-0.3,6.7,0.1,8.1,2.3C97.7,73.1,90.9,73.2,90.3,73.2z"/>
	<path class="st0" d="M68.9,145.6c-1.8,1.8-3.1,4.1-4.4,6.3c-0.1,0.2,0.2,0.3,0.3,0.2c1.3-2.1,3.2-4,4.4-6.2
		C69.2,145.7,69,145.5,68.9,145.6z"/>
	<path class="st0" d="M27.9,155.1c-0.2-0.1-0.4,0.1-0.2,0.2c1.2,1,2.4,2.2,3.6,3.2c0.1,0.1,0.3-0.1,0.2-0.2
		C30.4,157.1,29.1,156.1,27.9,155.1z"/>
	<path class="st0" d="M41.8,125.5c0.3,2.3,1.3,5.5,3.6,6.5c0.1,0.1,0.1,0.2,0.2,0.2c0.1,0.1,0.3,0,0.3-0.1c0,0,0,0,0-0.1
		c0.1-0.1,0.1-0.3-0.1-0.3c0,0,0,0,0,0c-0.2-1.1-0.8-2.2-1.2-3.1c-0.5-1.3-1.2-2.4-2.2-3.3C42.2,125.1,41.8,125.2,41.8,125.5z
		 M44.1,129.2c0.2,0.5,0.4,1.1,0.6,1.6c-1.1-1.1-1.7-2.7-2-4.2C43.3,127.4,43.7,128.3,44.1,129.2z"/>
	<path class="st0" d="M15,64.9c-1.4-1.3-3.3-1.9-4.9-2.9c-0.2-0.1-0.4,0.2-0.2,0.3c1.6,1,3.3,1.8,5,2.8C15,65.2,15.1,65,15,64.9z"/>
	<path class="st0" d="M47.9,21.6c-0.6,0.4-1.2,0.8-1.9,0.9c-0.4,0-0.4,0.6,0,0.6c0.8,0,1.4-0.1,2-0.5c0.5-0.3,1.3-0.8,1.4-1.4
		c0-0.2-0.1-0.3-0.2-0.3C48.6,20.9,48.2,21.3,47.9,21.6z"/>
	<path class="st0" d="M17,49.9c0.2-0.2,0-0.4-0.2-0.4c-0.4,0-0.8,0.1-1.2,0c-0.5-0.1-0.9-0.4-1.3-0.7c-0.2-0.2-0.5,0.1-0.3,0.3
		C14.6,49.8,16.1,50.8,17,49.9z"/>
	<path class="st0" d="M82.7,72.6c-0.5-0.3-0.8-0.7-1.1-1.1c-0.1-0.3-0.6-0.1-0.5,0.2c0.2,0.6,0.5,1,1,1.4c0.4,0.3,1.1,0.8,1.6,0.6
		c0.1,0,0.2-0.2,0.1-0.3C83.7,73,83.1,72.9,82.7,72.6z"/>
	<path class="st0" d="M20.6,55.9c0,0.2,0.2,0.2,0.3,0.1c0.9-1.6,1.1-3.7,0.7-5.5c0-0.2-0.3-0.3-0.5-0.1c-1.1,1-1.6,3.1-0.9,4.5
		c0.1,0.2,0.5,0.1,0.4-0.2c-0.4-1-0.1-2.5,0.5-3.4C21.2,52.9,20.8,54.4,20.6,55.9z"/>
	<path class="st0" d="M43.3,30.2c0,0.2,0.3,0.2,0.3,0c0-0.3,0.1-0.7,0.1-1.2c0.1-0.1,0.2-0.2,0.1-0.3c0,0,0,0-0.1-0.1
		c0-1.9-0.3-4.3-2.2-4c-0.1,0-0.3,0.1-0.3,0.3c0.1,1.5,0.9,2.8,1.9,3.8C43.3,29.3,43.3,29.9,43.3,30.2z M41.9,25.2
		c1,0.1,1.3,1.5,1.3,2.9C42.5,27.2,42,26.3,41.9,25.2z"/>
</g>
</svg>
