<?xml version="1.0" encoding="utf-8"?>
<!-- Generator: Adobe Illustrator 28.1.0, SVG Export Plug-In . SVG Version: 6.00 Build 0)  -->
<svg version="1.1" id="OBJECTS" xmlns="http://www.w3.org/2000/svg" xmlns:xlink="http://www.w3.org/1999/xlink" x="0px" y="0px"
	 viewBox="0 0 83.6 152.5" style="enable-background:new 0 0 83.6 152.5;" xml:space="preserve">
<style type="text/css">
	.st0{fill:#C3AD93;}
</style>
<g>
	<path class="st0" d="M70.2,34.6c0-0.1-0.1-0.2-0.1-0.3c-0.1-0.2-0.3-0.3-0.5-0.2c-0.3-0.2-0.5-0.4-0.8-0.6c-0.3-0.2-0.8,0-0.8,0.4
		c0.3,7.3-5.8,14.6-8.9,20.9c-2.1,4.3-4.2,9.6-1.4,13.9c0,0.2,0,0.3,0,0.5c0,0.2,0.2,0.2,0.4,0.2c-1,2.9-1.6,5.8-1.4,8.7
		c-1-2.4-2.2-4.8-3.5-7.1c0,0,0.1-0.1,0.1-0.1c0.5-3.8-1.6-7-2.8-10.5c0.1-0.4,0.2-0.8,0.4-1.1c1.9-5.7,5-12.5,3.2-18.6
		c-0.1-0.3-0.5-0.4-0.7-0.2c-2.9,1.9-5.6,4.3-7.9,7.1c-0.6-1.6-1.2-3.2-1.8-4.8c0.2-0.1,0.3-0.4,0-0.5c-0.1-0.1-0.2-0.1-0.3-0.2
		c-0.1-0.2-0.2-0.4-0.2-0.6c1.2-8.6,4.1-17.1,1-25.6c-2-5.5-6-12.3-11.9-14.4c-0.4-0.5-0.7-1-1.2-1.4c-0.2-0.2-0.5,0.1-0.4,0.4
		c0.1,0.2,0.3,0.5,0.4,0.7c-0.1,0-0.1,0-0.2,0c-0.2-0.1-0.4-0.2-0.6-0.3c0,0,0,0,0,0c0-0.1-0.2-0.1-0.3-0.1
		c-0.2-0.1-0.4-0.1-0.6-0.2C29.2,0.4,29,1,29.4,1.1c0.1,0,0.2,0.1,0.3,0.1c0,0.1,0,0.1,0,0.2c4.1,13.1-1.1,32.4,12.7,40.6
		c0,0.5,0,1,0,1.5c0,0.3,0.5,0.3,0.5,0c0-0.2,0-0.3,0.1-0.5c0.7,1.7,1.4,3.4,2.1,5c-1.2,1.6-2.3,3.2-3.1,5
		c-3.2-6.3-8-11.4-12.8-16.6c0.7-0.2,1-0.9,1.2-1.5c0.2-0.8,0.3-1.8,0.5-2.6c0,0,0,0,0,0c0.2,0.3,0.4,0.6,0.7,0.8
		c0.1,0.1,0.2,0.2,0.3,0.3c0.2,0.2,0.5,0.1,0.7-0.1c0.1-0.1,0.2-0.2,0.2-0.3c0,0,0,0,0,0c0-0.1,0-0.2,0-0.2c0,0,0-0.1,0-0.1
		c-0.1-0.5-0.3-0.8-0.7-1.2c-0.1-0.1-0.2-0.2-0.3-0.2c-0.1-0.1-0.3-0.3-0.4-0.4c-0.1-0.1-0.4-0.1-0.5,0.1c-0.5,0.7-0.6,1.6-0.8,2.5
		c-0.1,0.6-0.1,2.3-0.9,2.5c-0.1,0-0.1,0.1-0.1,0.1c-0.5-0.5-0.9-1-1.4-1.5c-0.7-2.3-1.2-4.7-1.5-7c0.1-0.1,0.1-0.2,0-0.4
		c0-0.1-0.1-0.2-0.1-0.3c0,0,0,0,0,0c0,0,0-0.1,0-0.1c0,0-0.1-0.1-0.1-0.1c2.6-1.1,0.2-6-2.5-3.7c-0.3,0.3-0.4,0.8,0,1.1
		c0.8,0.6,1.4,0.6,2.2,0.1c0.3,0.5,0.2,1.5-0.6,1.6c-0.4,0.1-0.8,0.6-0.4,1c0.3,0.3,0.6,0.7,0.9,1c0,0.1,0.1,0.1,0.1,0.1
		c0.7,1.4,0.8,3.7,1.1,5.2c0.1,0.3,0.1,0.5,0.2,0.8c-1.5-1.7-3-3.4-4.5-5.2c0.2-0.1,0.2-0.3,0-0.4c-1.9-0.9-2-5-1.7-7.5
		c0.2-0.1,0.4-0.2,0.5-0.5c0.2-0.8,0.1-2.4-1.2-2.1c-1.4,0.4-1,2.2-0.4,3.1c0.1,0.1,0.3,0.1,0.4,0.1c-0.1,1.4-0.2,2.9,0,4.2
		c-1.1-1.7-2.2-3.4-3.1-5.3c0.6-0.4,0.7-1.3,0.8-1.9c0.1-0.7,0-1.5-0.5-2.1c-0.9-0.9-2.3-0.4-3.1,0.3c-0.1,0.1-0.1,0.2-0.2,0.2
		c-0.2-0.1-0.6,0.1-0.5,0.4c0,0.1,0.1,0.2,0.1,0.2c-0.2,1,0.3,2.2,1.4,2.4c0.1,0,0.1,0,0.2,0c0.4,0.4,0.9,0.7,1.4,0.6
		c0,0,0.1,0,0.1,0c1.3,2.9,2.9,5.5,4.7,8c-2.5,0.7-5-0.9-7.6-1.5c0.2-0.6,0.2-1.2,0.1-1.6c-0.1-0.4-0.8-0.4-0.9,0
		c0,0.2-0.1,0.4-0.3,0.6c-0.1,0.2,0.1,0.4,0.2,0.4c0,0.1-0.1,0.3-0.1,0.4c-0.3-0.3-0.7-0.4-1-0.4c-0.3,0-0.4,0.2-0.6,0.5
		c-0.2,0.1-0.4,0.2-0.3,0.4c0,0.1,0.1,0.2,0.1,0.4c0,0.5,0.1,1,0.5,1.2c0.2,0.1,0.5,0.2,0.7,0.1c0.4,0.1,0.8,0,1.2-0.4
		c0.3-0.2,0.3-0.5,0.2-0.8c2.8,0.6,5.7,2.4,8.2,1.2c1.8,2.4,3.7,4.7,5.7,7c0.1,0.3,0.2,0.6,0.3,0.9c0.1,0.3,0.4,0.2,0.5,0
		c1.2,1.4,2.5,2.7,3.7,4.1c-2-0.1-3.8-1.5-5.7-2.3c-1.8-0.8-3.6-1.5-5.3-2.4c1.5-1.5-0.1-5-2.5-3.9c-2.3,1-1.6,5.2,1,4.4
		c0.2,0.2,0.3,0.3,0.7,0.4c0.3,0.1,0.5,0,0.6-0.2c2.2,1.1,4.6,2,6.9,3c1.6,0.7,2.9,1.8,4.8,1.4c3.5,3.9,6.9,7.8,9.6,12.3
		c-1.2,2.5-2.1,5.2-2.5,7.9c-3-0.8-6.7-1.4-9-3.6c1.8-0.9,1.1-4.1-1.3-4.5c-3.8-0.7-4.4,4.5-0.7,4.1c0,0.4,0.3,0.8,0.7,0.7
		c0,0,0,0,0.1,0c0.2,0,0.4,0,0.5,0c2.3,2.4,6.5,3.6,9.6,3.9c-0.7,5.3,0.2,10.7,3.7,15.5c0.1,0.5,0.2,1.1,0.3,1.6
		c-0.2,0.3-0.3,0.5-0.5,0.8c-0.3,0.5,0.4,1.1,0.7,0.6c0.3,1.5,0.7,2.9,1.2,4.4c-2.1-2.1-4.4-4-7-5.7c-1.2-0.7-2.3-1.5-3.4-2.3
		c0.1-0.1,0-0.3-0.1-0.4c-3.4-3.1-4.9-7.7-6.9-11.7c-1.5-2.8-3.6-5-6-7.1c-5.7-5-13.1-7.9-20.6-8.3c-0.4,0-0.6,0.4-0.3,0.7
		c6,5.3,8.3,13.4,14,19.1c5.2,5.2,13.1,5.1,19.4,8.4c0.2,0.2,0.4,0.3,0.6,0.5c6.1,4.4,11.2,8.5,15.7,14.8c2,2.8,3.7,5.7,5.3,8.7
		c-1.5-1.5-3.3-2.7-5.1-3.7c0-0.1-0.1-0.1-0.1-0.2C41,89.2,28.3,73.5,15.4,82.8c0,0,0,0,0,0c-0.2-0.2-0.4,0.1-0.3,0.3
		c-0.2,0.1-0.3,0.2-0.5,0.4c-0.4,0.3,0.1,1.1,0.5,0.7c0.2-0.2,0.4-0.3,0.6-0.4c4.6,4.5,9.6,8.7,15.2,11.8c6,3.3,12.3,0.7,18.5,2.8
		c0.1,0,0.2,0,0.3,0c2.2,1.2,4.3,2.7,6.1,4.5c1.7,3.4,3.2,7,4.6,10.6c0.2,0.4,0.8,0.2,0.7-0.3c-3.6-9.8-8.5-19.9-15.9-27.6
		c-0.6-2-1.1-3.9-1.5-5.9c2.7-4.6,4-9.7,5.4-14.8c3.7,6.5,7.3,13.1,9.6,20.3c0.1,0.2,0.1,0.4,0.2,0.6c-3.5-2.1-6.1-5.6-9.5-7.9
		c-0.1-0.1-0.4-0.1-0.4,0.1c0,0,0,0.1,0,0.1c-0.4-0.3-1.1,0.4-0.7,0.8c0,0,0.1,0.1,0.1,0.1l0,0c0,0,0,0,0,0c0.3,0.3,0.6,0.6,0.9,0.7
		c0.1,0.1,0.2,0.2,0.2,0.3c0.1,0.4,0.6,0.3,0.7,0c0.2,0,0.3-0.3,0.1-0.4c-0.1-0.1-0.2-0.2-0.3-0.2c-0.1-0.2-0.3-0.4-0.4-0.6
		c-0.2-0.5,0.9,0.7,1,0.7c1.1,0.9,2,1.9,3,2.8c1.7,1.6,3.3,3.2,5.4,4.3c2.2,7.8,2.5,15.8,2.1,23.8c0,1-0.1,2-0.1,3
		c0,0.1,0,0.1,0,0.2l0,0.9c0,0.1,0,0.1,0,0.2c-0.3,13.4,0.9,27,10,37.6c0.3,0.4,1-0.1,0.7-0.5c-6.5-7.6-8.6-16.4-9.3-25.6
		c2.2-1.2,2.6-4.1,3.4-6.4c0.2,0,0.4,0,0.5-0.2c0.3-0.4,0.2-0.9,0-1.4c-0.1-0.3-0.6-0.3-0.7,0c-0.5,1.2-0.8,2.5-1.3,3.8
		c-0.4,1.2-0.9,2.7-2,3.5c-0.2-3.4-0.2-6.9-0.2-10.3c0.1,0,0.3,0,0.4-0.2c3.5-4.6,5.1-9.9,6.2-15.4c0.3-0.1,0.5-0.5,0.8-0.9
		c0.9-1.7,2.3-3.1,3.4-4.7c1-1.3,1.9-2.6,2.9-3.9c0,0.2,0.1,0.4,0.1,0.6c0,0.3,0.5,0.4,0.6,0c0.1-0.5,0.1-1,0-1.4
		c0.1-0.1,0.2-0.2,0.2-0.3c0.1-0.1,0.1-0.3,0-0.4c-0.2-0.1-0.3-0.2-0.4-0.3c-0.2-0.1-0.4,0-0.4,0.2c0,0.3-0.1,0.7,0,1
		c-0.3,0.3-0.7,0.7-0.9,0.9c-1,1.3-1.9,2.6-2.8,3.9c-0.7,1-1.5,1.9-2.2,2.8c-0.1,0.1-0.5,0.8-0.9,1.3c0.1-0.6,0.2-1.1,0.3-1.7
		c0.1-0.1,0.2-0.3,0.2-0.4c0-0.1,0-0.1-0.1-0.2c0.3-1.9,0.6-3.9,0.8-5.8c0.1,0,0.2-0.1,0.1-0.2c0-0.1,0-0.1-0.1-0.2
		c0.1-0.7,0.2-1.4,0.3-2.1c3.4-1.5,4.9-4.9,6.5-8.1c0.1,0,0.3,0,0.4-0.1c0,0,0.1-0.1,0.1-0.1c0,0,0,0,0,0c0,0,0.1,0,0.1,0
		c0,0,0,0,0,0c0,0,0.1,0,0.1,0c0,0,0,0,0.1,0c0,0,0,0,0.1,0c0,0,0,0,0.1,0c0.3,0,0.7-0.1,1-0.3c1.1-0.6,1.5-2.3,0.8-3.2
		c-0.6-0.8-1.7-0.9-2.5-0.5c-0.6,0.3-0.9,1.1-0.8,1.8c-0.1,0-0.2,0.1-0.2,0.2c-0.1,0.6,0,1.1,0.4,1.5c0,0,0,0,0,0
		c-1.3,3.2-3,6.7-6.1,8.4c0.2-1.2,0.4-2.4,0.6-3.7c1.2-0.2,1.8-1.5,2.3-2.7c0,0,0,0,0,0c0.2,0.2,0.5,0.2,0.6-0.1
		c0.3-0.8-0.1-1.5-0.3-2.2c-0.2-0.6-0.9-0.4-1.1,0.1c-0.1,0.3-0.2,0.7-0.2,1.1c0,0.1,0,0.2,0.1,0.2c-0.3,0.9-0.6,1.7-1.1,2.3
		c0.7-3.4,1.7-6.7,3.2-9.8c0.1,0.1,0.2,0.2,0.3,0.2c0.7,0.5,1.6,0.5,2.3-0.1c1-1,1.1-2.6,0-3.5c-0.8-0.7-2.1-0.9-3.1-0.5
		c-1.2,0.6-1.3,2.4-0.2,3.2c0.1,0,0.1,0.1,0.2,0.1c0,0,0,0,0,0.1c-1.9,3.5-2.9,7.3-3.7,11.2c0,0,0,0,0,0.1c-0.3,1.7-0.6,3.4-0.8,5.2
		c-1-2.6-2.5-5-3.7-7.6c0.1,0,0.1-0.1,0.1-0.2c-0.1-0.4-0.2-0.6-0.3-0.9c0,0,0.1,0,0.1,0c1.1-0.7,1.3-3,0.3-3.9
		c-0.7-0.7-1.9-0.5-2.7,0c-0.6,0.4-0.8,1.1-0.5,1.7c-0.2,0-0.4,0.2-0.3,0.4c0.3,1.1,1.2,2.3,2.4,2.1c1.3,3.2,2.8,6.4,4.5,9.4
		c0,0.4-0.1,0.7-0.1,1.1c-0.2,1.4-0.4,2.9-0.6,4.3c-0.1-0.2-0.2-0.4-0.3-0.7c-0.1-0.3-0.5-0.2-0.6,0c-0.2-0.3-0.4-0.6-0.6-0.9
		c-0.3-0.4-1.3-1.6-1.6-2.4c0,0,0.1,0,0.1,0c0.2,0,0.3-0.1,0.2-0.3c-0.1-0.3-0.1-0.8-0.4-1c0,0,0.1,0,0.1-0.1c1-0.6,1.2-1.9,0.5-2.8
		C66,86,65,85.4,64,85.7c-0.4,0.1-0.8,0.5-0.9,0.9c-0.2,0.7,0,1.3,0.4,1.9c0.1,0.2,0.4,0.1,0.4-0.1c0-0.4,0-0.9,0.2-1.2
		c0.1-0.1,0.1-0.2,0.1-0.3c0.1-0.1,0.1-0.1,0.1-0.1c0,0,0.1,0,0.2,0c-0.1,0,0.3,0.1,0.2,0c0.3,0.1,0.4,0.2,0.7,0.4
		c0.4,0.3,0.5,0.7,0.3,1.2c-0.1,0.2-0.5,0.6-0.8,0.5c-0.3-0.1-0.5-0.7-0.5-1c0-0.2-0.3-0.3-0.4-0.1c-0.2,0.6-0.2,1.1,0.2,1.6
		c0.3,0.3,0.6,0.4,1,0.4c-0.6,0.8,0.1,1.5,0.5,2.3c0.9,1.5,1.9,2.9,3,4.3c-0.3,1.9-0.6,3.8-1.1,5.6c-0.5,2-1.1,4-1.9,6
		c-0.7,1.8-3,3.9-3.2,5.7c0-0.1-0.1-0.2-0.1-0.3c0-0.1-0.1-0.1-0.1-0.1c0.1-3.2,0.1-6.4,0.1-9.6c0-5.9-1-11.5-2.6-17
		c0.1-0.1,0.1-0.3-0.1-0.4c0,0,0,0,0,0c-0.7-2.2-1.5-4.4-2.4-6.6c-0.3-1.5-0.3-3-0.1-4.6c0.1,0.1,0.3,0.1,0.3,0
		c1.3-5.2,6.2-7.5,10.2-10.4c3.5-2.5,5.5-5.7,6.9-9.7C77.2,47.9,75.9,39.6,70.2,34.6z M16.3,19.2c0,0,0-0.1,0-0.1
		c-0.1-0.2-0.4-0.1-0.3,0.1c0,0.1,0.1,0.1,0.1,0.2c-0.4-0.1-0.8-0.6-1-0.9c-0.2-0.2-0.3-0.4-0.4-0.6c0-0.2,0.1-0.3,0.2-0.5
		c0.2-0.2,0.5-0.4,0.8-0.5c0.2-0.1,0.5,0,0.7,0.1c0.2,0.2,0.3,0.6,0.3,1c0,0.4-0.1,0.7-0.2,1.1C16.3,19.2,16.3,19.2,16.3,19.2z
		 M19.5,35.6c-0.1-0.1-0.2-0.1-0.4-0.2c-0.2-0.1-0.5,0.1-0.5,0.3c-0.4-0.2-0.6-0.6-0.5-1.1C18.4,33.1,21.1,34.9,19.5,35.6z M29,56.7
		c0,0-0.1,0-0.1,0c0,0-0.1,0-0.1,0c-0.2,0-0.3,0.1-0.4,0.2c0,0,0,0,0,0c-0.6-0.1-1-0.5-1.3-1c0.1-1.2,0.7-1.6,1.8-1.1
		C29.8,55.2,30.1,56.6,29,56.7z M2.5,50.5C14,52.9,19,61.9,25.6,70c-2.5-2.2-4.9-4.5-7.3-6.8C13.8,58.8,9.1,54,3.4,51.4
		C3.1,51.1,2.8,50.8,2.5,50.5z M14.6,68.5c-3.3-3-5.4-7.3-7.6-11.1c-0.3-0.6-1.3-2.3-2.3-4c7.4,8,15.5,16.4,24.9,21.5
		c0.2,0.1,0.3-0.2,0.2-0.3c-5-3.9-10.1-7.5-14.8-11.9c-3.7-3.4-7.1-7-10.6-10.5c9.5,5.3,16.7,14.5,24.9,21.7
		c0.7,0.7,1.3,1.3,2.1,1.9C25.7,73.5,19.4,72.8,14.6,68.5z M29.9,73.6c-8.1-9.2-14.2-21.1-27.3-23.3c7.6,0.7,14.6,4.7,20,9.9
		c4.3,4.1,5.4,10.3,9,14.9C31.1,74.5,30.5,74.1,29.9,73.6z M18.1,82.2c5.8-0.8,10.6,0.5,15.7,3.4c4.2,2.4,7,6.4,10.7,9.3
		c-5-2.6-8.9-6.4-13.7-9.2c-2.5-1.5-5.1-2.2-7.8-2.5c-1.7-0.6-3.5-0.9-5.3-0.8C17.9,82.3,18,82.2,18.1,82.2z M38.5,92.2
		c-1.4-0.7-2.7-1.4-4-2.3c-2.6-1.7-5.3-3.7-8.1-5.3c2.4,0.7,4.7,1.9,7.2,3.7C35.2,89.6,36.8,90.9,38.5,92.2z M16.1,83.4
		C16.1,83.4,16.1,83.4,16.1,83.4c0-0.1,0.1-0.2,0.2-0.2c0,0.1,0.1,0.1,0.2,0.1c2.6,0.1,4.8,0.2,7,0.6c4.2,1.6,8,4.8,11.7,7.1
		c3,1.8,6.2,3.3,9.4,4.7c-6-0.5-10.6-2.8-15.8-6C24.8,87.2,20.8,84.5,16.1,83.4C16.1,83.4,16.1,83.4,16.1,83.4z M39.1,96.7
		c-8.6,0.1-15.9-7.1-22.2-12.6c5.2,2,9.7,5.1,14.5,8c4.1,2.5,9.1,4.9,14,4.1c0,0,0,0,0,0c0.4,0.2,0.9,0.4,1.3,0.6
		C44.2,96.5,41.7,96.7,39.1,96.7z M46.6,96c-8.3-6.8-15.6-15.8-27-14.4c9.6-3.3,18.9,6.1,25.6,12.8c0.7,0.6,1.3,1.3,2,1.9
		C47,96.2,46.8,96.1,46.6,96z M44.7,20.3c1.2,5.3-0.5,10.5-1.6,15.8c-0.3-6.5-1.1-13.2-2.5-19.4c-1-4.8-2.9-10.3-6.7-13.6
		C39.6,6.1,43.4,14.4,44.7,20.3z M33.5,3.7c9,7.7,7.3,23.3,8.6,34.9c-2.5-6.7-4.8-13.3-5.7-20.6C35.9,13.8,35.5,8.1,33.5,3.7z
		 M32.7,20.3c-0.1-1.5-0.2-3-0.3-4.5c1.3,8.6,3.2,17.1,8.1,24.1C34.9,35,33.4,27.8,32.7,20.3z M42.2,41.3c-0.3-0.2-0.5-0.4-0.8-0.6
		c0,0,0-0.1,0-0.2C34.5,28.4,34,15.5,30.7,2.4c0-0.2,0.1-0.3,0.4-0.3c0.2,0.1,0.5,0.3,0.7,0.4c2.9,6,3.5,12.8,4.3,19.3
		C37,28.5,39.6,35,42.2,41.3z M42.6,76.4c-3.8-6-3.8-12.9-1.4-19.7c1.1-3,2.8-5.8,4.7-8.3c0.4-0.6,3-3.4,5-5
		c-6.6,8-14.4,22.5-8.4,32.5C42.6,76.1,42.6,76.2,42.6,76.4z M43.2,76.3c-0.3-2.7-0.4-5.4-0.2-8.2c0.6-7.1,3.8-12.9,7.7-18.7
		c0.1-0.2-0.1-0.5-0.3-0.3c-6.3,6.7-8.7,16.2-8,25.4c-4.1-10.6,3.1-22.7,9.4-31.2c0.1-0.2,0-0.4-0.1-0.4c0.1-0.1,0.3-0.2,0.4-0.3
		c-0.3,7.3-3.1,13.1-6,19.8c-2,4.5-3.5,9.3-2.7,14.1C43.3,76.5,43.3,76.4,43.2,76.3z M48.5,63.5C48.5,63.5,48.5,63.5,48.5,63.5
		c-1.4,4.8-2.4,9.5-4.6,13.9c-1.8-12.6,10.8-22.8,8.8-35c0.5-0.2,0.8-0.1,0.9,0.4c1,6-2.6,12.9-4.4,18.4C49,62,48.8,62.7,48.5,63.5z
		 M49.4,64.2c0.3-1.1,0.6-2.1,0.9-3.2c1.3,2.9,2.7,6.2,2.6,9.4C51.8,68.3,50.7,66.2,49.4,64.2z M77.8,77c0-0.2,0.1-0.4,0.2-0.4
		c0.2-0.2,0.6-0.1,0.7,0c0.1,0.1,0.2,0.2,0.2,0.3c0.1,0.3,0,0.6-0.2,0.8c-0.1,0.3-0.4,0.5-0.8,0.6l0-0.1c0-0.1-0.2-0.2-0.3-0.3
		C77.8,77.6,77.8,77.3,77.8,77z M74.5,70.3c0-0.3,0.2-0.4,0.3-0.5c0.5-0.3,1.2-0.1,1.8,0.2c0.6,0.3,0.7,0.9,0.4,1.5
		c-0.4,0.8-1.1,0.7-1.7,0.3c0,0,0,0,0-0.1c0.2-0.3-0.2-0.6-0.5-0.4c-0.1-0.2-0.2-0.3-0.3-0.5C74.5,70.7,74.5,70.5,74.5,70.3z
		 M64.5,79.2c-0.6-0.2-0.9-0.7-1-1.3c0.1,0.1,0.3,0.2,0.5,0.2c0.2,0,0.4-0.2,0.3-0.4c-0.2-0.4-0.4-0.7,0.1-1
		c0.4-0.3,0.9-0.4,1.3-0.2c0.7,0.4,0.3,1.8,0,2.3C65.4,79.3,65,79.4,64.5,79.2z M69.4,35c0.1,0.1,0.2,0.2,0.3,0.3
		c0.1,0.4,0.3,0.9,0.3,1.3C69.7,36,69.4,35.5,69,35C69,34.9,69.2,34.9,69.4,35z M69.3,36.7c0.3,0.6,0.6,1.2,0.9,1.8
		c0.2,6.7-4.6,13.9-7.1,19.6c-1.4,3.4-3.4,7-4.8,10.7c-0.1-0.1-0.1-0.2-0.1-0.2c-0.7-6.7,4.3-11.5,7.5-16.9
		C68.4,47.1,70.4,41.9,69.3,36.7z M63.1,49.3c1.6-2.8,3.1-5.6,4.4-8.6c0.5-1.2,0.9-2.4,1.2-3.6c0-0.1,0-0.2,0.1-0.3
		c1.3,8-3.4,14.2-7.6,20.6c-2,3.1-3.6,6.4-3.5,10C55.4,61.7,60.5,54.1,63.1,49.3z M58.3,71.4c-0.2,0.4-0.4,0.8-0.6,1.2
		c1.4-6.3,5.1-12.6,7.7-17.9c2-4.2,4.9-9.4,5.4-14.5c1.4,5.1,0.7,11.3-1.3,15.8c-2.5,5.7-7.9,9.9-11.2,15.1
		C58.3,71.2,58.3,71.3,58.3,71.4z M68.3,63.3c-2.2,1.8-5.4,3.4-7.8,5.5c3.9-4.8,8.9-9.2,10.6-15.3c1.2-4.5,1.6-10.4-0.2-15.1
		c0-0.4,0-0.7-0.1-1.1c2.9,6.2,2,12.8-0.3,19.3c-0.1,0.2,0.2,0.3,0.3,0.1c3.5-6.4,3.3-14.4-0.2-20.7c0,0,0-0.1,0-0.1
		C78.2,42.9,75.4,57.4,68.3,63.3z"/>
	<path class="st0" d="M14.2,24.6c0.1,0,0.2-0.1,0.3-0.1c0,0,0,0,0,0c0.7,0.5,1.4-0.1,1.7-0.8c0.4-0.9,0.3-2.1-0.8-2.4
		c-0.8-0.2-1.8,0.2-2.2,0.9C12.5,23.1,13,24.6,14.2,24.6z M14.9,22.4c0.2,0,0.3,0,0.4,0.1c0,0,0,0,0.1,0.1c0,0,0,0.2,0,0.3
		c0,0.2-0.2,1-0.4,0.9c-0.4-0.1-0.7-0.6-0.9-1C14.3,22.5,14.6,22.4,14.9,22.4z"/>
	<path class="st0" d="M27.9,28.6c0.1,0.1,0.2,0.2,0.3,0.4c0,0.3,0.1,0.6,0.2,0.8c0.1,0.2,0.4,0.1,0.5,0c0-0.1,0.1-0.1,0.1-0.2
		c0.1,0,0.2,0,0.4,0c0.7-0.3,0.7-1,0.7-1.6c0-0.3-0.3-0.5-0.6-0.5c-0.5,0.1-0.9,0.3-1.2,0.8C28,28,27.7,28.3,27.9,28.6z"/>
	<path class="st0" d="M32.1,54.3c-1,0.6-0.9,2.3,0.1,2.8c0.2,0.1,0.4,0,0.4-0.2c0,0,0,0,0,0c0.3,0.4,0.8,0.7,1.3,0.5
		c0.5-0.2,0.9-1,1-1.5c0.1-0.4,0-0.9-0.3-1.3C34,53.9,32.9,53.8,32.1,54.3z M33.7,55.2c0.2,0.1,0.2,0.2,0.2,0.5
		c0,0.3-0.2,0.7-0.4,0.8c-0.2,0.2-0.7-0.6-1-1.1c0-0.1,0.1-0.1,0.1-0.2C32.9,54.9,33.4,55,33.7,55.2z"/>
	<path class="st0" d="M29.7,61.5c0.2,0.3,0.7,0.2,1,0.1c0.2-0.1,0.3-0.3,0.2-0.5c-0.1-0.3-0.4-0.5-0.6-0.7c-0.3-0.4-0.9,0-0.8,0.4
		c0,0,0,0.1,0.1,0.1c0,0.1,0,0.2,0,0.3C29.6,61.3,29.7,61.4,29.7,61.5z"/>
	<path class="st0" d="M49.5,77c0.1,0.2,0.3,0.4,0.6,0.5c0.6,0.2,1.2-0.1,1.6-0.5c0.6-0.7,0-1.7-0.6-2.1c-0.6-0.5-1.6-0.9-2.4-0.4
		c-0.4,0.2-0.5,0.7-0.5,1.1c0,0.5,0.4,1.4,1,1.6C49.2,77.1,49.4,77.1,49.5,77z M49.3,75.6c0-0.1,0-0.1,0-0.2c0-0.1,0,0,0-0.1
		c0,0,0,0,0,0c0,0,0,0,0.1,0c0.1,0,0.1,0,0.2,0c0.2,0,0.4,0.1,0.6,0.3c0,0,0.2,0.1,0.3,0.2c0.1,0,0.3,0.2,0.2,0.2
		c0,0,0.1,0.1,0.1,0.1c0,0,0,0,0,0c0,0,0,0,0,0c0,0,0,0.1,0,0.1c-0.1,0.1-0.2,0.1-0.3,0.2c-0.3,0.2-0.6-0.4-0.8-0.6
		c-0.1-0.1-0.2-0.1-0.3-0.1C49.3,75.7,49.3,75.7,49.3,75.6z"/>
	<path class="st0" d="M80.5,78.5c-1.2,0.4-1.4,2.1-0.6,3c0,0,0,0,0,0c0.5,0.8,1.5,1.4,2.4,0.9c1.1-0.6,1.7-2.1,0.9-3.1
		C82.6,78.6,81.5,78.2,80.5,78.5z M82.2,81.2c-0.5,0.8-1.4,0.2-1.9-0.5c0-0.2,0-0.4,0.1-0.6c0-0.1,0.1-0.3,0.1-0.3
		c0.1-0.1,0.2-0.2,0.2-0.2c0.4-0.2,1-0.1,1.5,0.2c0.2,0.2,0.3,0.3,0.3,0.5C82.6,80.7,82.4,80.9,82.2,81.2z"/>
	<path class="st0" d="M77.8,89.8c-0.2,0.3-0.3,0.6-0.3,0.9c0,0.4,0.4,0.7,0.8,0.6c0.1,0,0.2-0.1,0.2-0.2c0.3,0.7,0.8,1.5,1.5,1.3
		c0.6-0.2,0.5-1,0.4-1.4c-0.1-0.5-0.3-1-0.7-1.4C79.2,89,78.3,89.3,77.8,89.8z M79.5,91.2c0,0,0,0.1,0,0.1c-0.3-0.2-0.6-0.7-0.7-0.9
		c0-0.1-0.1-0.1-0.1-0.1c0.1-0.1,0.3-0.2,0.4-0.1c0.1,0.1,0.2,0.3,0.3,0.4C79.4,90.8,79.5,91,79.5,91.2z"/>
	<path class="st0" d="M70.3,85.6c-0.2-2.2-0.6-4.5-0.6-6.7c0.1,0.1,0.2,0.2,0.2,0.3c0.2,0.2,0.5,0,0.6-0.2c0,0,0-0.1,0-0.1
		c0.2-0.1,0.4-0.3,0.4-0.6c0-0.3-0.1-0.5-0.2-0.8c0.8-0.6,1-1.7,0.5-2.5c-0.4-0.7-1.2-1.3-2.1-1.2c-1.1,0.2-1.3,1.6-0.7,2.4
		c0,0,0,0,0.1,0.1c0.1,0.4,0.3,0.9,0.6,1.2c-0.2,2.8,0.4,5.4,0.8,8.2C70,85.8,70.4,85.8,70.3,85.6z M69.1,75.1c0,0,0.1-0.2,0.1-0.1
		c0,0,0.1,0,0.1-0.1c0,0,0,0,0.1,0c0.2,0,0.3,0,0.5,0.1c0.2,0.1,0.3,0.3,0.5,0.4c0.2,0.3,0.3,0.7,0.1,1c-0.1-0.2-0.2-0.3-0.3-0.5
		c-0.2-0.2-0.6-0.2-0.7,0.1c-0.1,0-0.1,0.1-0.2,0.1C69.1,76,69,75.8,69,75.7C69,75.5,69.1,75.3,69.1,75.1z"/>
	<path class="st0" d="M77.4,85.8c0.3,0.1,0.6-0.1,0.7-0.4c0.1-0.2,0.2-0.4,0.1-0.6c-0.1-0.2-0.2-0.5-0.4-0.7
		c-0.1-0.2-0.4-0.3-0.7-0.2c0,0,0,0,0,0c0,0,0,0,0,0c-0.3,0.1-0.4,0.3-0.4,0.6c0,0.2,0,0.4,0.1,0.5c-0.4,0.2-0.8,0.4-1.1,0.7
		c-1,0.7-1.8,1.7-3,2.2c-0.3,0.1-0.2,0.6,0.1,0.5c0.4,0,0.7-0.1,1-0.2c0.1,0,0.1-0.1,0.1-0.2c0.3-0.2,0.6-0.4,0.9-0.6
		C75.4,87.1,76.8,85.6,77.4,85.8z"/>
	<path class="st0" d="M22.7,41.2c-0.4-0.8-1.6-0.4-1.3,0.5c0,0,0,0.1,0,0.1c-0.4,0.1-0.7,0.3-0.8,0.7c-0.1,0.6,0.3,1,0.7,1.3
		c0.3,0.2,0.6,0.2,0.9,0.1c0.4,0.6,0.8,1.2,1.4,1.6c0.2,0.2,0.5,0,0.4-0.3c-0.3-0.9-0.6-1.7-0.9-2.6c0-0.2-0.1-0.5-0.1-0.7
		c0.2-0.1,0.5-0.2,0.8-0.3c1.5-0.5,3.1-0.3,4.5-0.8c0.3-0.1,0.2-0.5-0.1-0.6C26.4,40.3,24.4,40.5,22.7,41.2z"/>
	<path class="st0" d="M74,95.8c0,0.1,0,0.1,0,0.2c-0.7,0.2-1.4,0.7-1.9,1.1c-0.7,0.6-2.2,2-2.3,3c0,0.4,0.5,0.5,0.6,0.1
		c0.1-0.5,1.3-1.5,1.7-1.9c0.3-0.3,1.5-1.5,2.3-1.6c0.1,0.2,0.3,0.3,0.6,0.4c0.1,0,0.1,0,0.2,0c0.3,0.3,0.9,0.2,0.8-0.3
		c-0.1-0.6-0.4-1.1-0.8-1.6C74.6,94.6,73.8,95.2,74,95.8z"/>
	<path class="st0" d="M51.5,85.6c0-0.3,0-0.6-0.1-0.9c0,0,0-0.1,0-0.1c0.1-0.1,0.1-0.1,0.2-0.2c1.1-0.6,2.5-0.3,3.6-0.2
		c0.2,0,0.4-0.3,0.2-0.4c-0.8-0.5-2-0.7-3-0.5c-0.1-0.3-0.4-0.5-0.7-0.5c-0.9,0-1.7,0.4-1.8,1.4c-0.1,0.9,0.4,1.7,1.3,1.8
		C51.3,86,51.5,85.8,51.5,85.6z"/>
</g>
</svg>
